<svg width="250" height="443" viewBox="0 0 250 443" fill="none" xmlns="http://www.w3.org/2000/svg">
<path d="M481.531 46.9962C488.88 49.3626 497.182 50.5281 504.814 49.1153C514.424 47.3493 519.935 39.544 521.313 30.2905C521.596 28.4186 521.737 26.5111 521.737 24.5686C525.023 18.6703 523.292 11.1475 519.582 5.4965C515.272 -1.0375 509.301 -6.90056 502.623 -10.9622C489.692 -18.8737 470.684 -19.368 459.979 -7.25358C449.238 4.89613 451.535 23.4384 461.993 34.9877C467.186 40.7447 474.252 44.6299 481.566 46.9962H481.531Z" fill="#D3ECF7"/>
<path d="M533.608 245.453C528.344 233.657 517.957 223.979 504.778 222.496C491.211 220.977 478.846 229.383 475.595 242.663C472.415 255.66 474.535 271.554 486.336 279.501C491.635 283.103 498.313 284.375 504.637 284.763C511.385 285.187 518.734 284.516 524.599 280.949C531.488 276.781 535.481 269.329 536.117 261.382C536.435 257.426 535.728 253.576 534.386 249.974C534.527 248.491 534.28 246.901 533.608 245.418V245.453Z" fill="#D3ECF7"/>
<path d="M447.684 299.067C435.495 293.31 419.348 290.202 409.421 301.752C405.534 306.308 403.096 311.959 402.072 317.857C400.976 324.391 400.552 331.596 403.45 337.742C406.311 343.816 412.954 348.867 418.571 352.293C424.118 355.719 430.76 357.909 437.367 357.273C445.317 356.531 452.453 352.681 457.258 346.289C459.555 343.251 461.039 339.825 461.852 336.223C463.689 335.375 465.173 333.786 465.773 331.737C469.872 317.68 459.908 304.789 447.719 299.032L447.684 299.067Z" fill="#D3ECF7"/>
<path d="M419.985 153.447C423.624 149.739 426.097 145.147 427.757 140.273C428.605 139.108 429.135 137.66 429.312 136.035C429.383 135.505 429.312 134.976 429.312 134.481C429.383 134.128 429.489 133.775 429.524 133.457C429.877 131.726 429.63 129.889 428.888 128.335C427.227 119.152 421.115 110.5 412.813 106.438C401.613 100.999 388.222 103.33 379.072 111.7C370.31 119.718 367.907 132.998 372.394 143.84C377.234 155.425 388.646 163.089 401.436 161.783C408.361 161.076 415.003 158.498 419.949 153.447H419.985Z" fill="#D3ECF7"/>
<path d="M342.681 215.397C336.109 218.293 330.81 223.662 329.432 230.902C328.23 237.33 328.902 244.182 330.562 250.469C332.152 256.543 335.12 262.406 340.172 266.291C345.825 270.671 353.739 271.66 360.7 270.953C369.073 270.141 376.669 266.821 381.757 259.899C381.933 259.651 382.075 259.369 382.287 259.086C383.912 258.627 385.325 257.638 386.032 256.014C390.978 244.464 388.788 231.82 380.732 222.213C371.369 211.017 355.435 209.781 342.716 215.362L342.681 215.397Z" fill="#D3ECF7"/>
<path d="M593.212 23.0147C599.324 27.5355 606.849 29.9017 614.41 28.5949C621.37 27.3941 627.553 22.7674 631.404 16.9397C635.043 11.3947 636.28 4.43694 635.609 -2.1677C636.033 -11.951 631.192 -21.8403 622.183 -26.891C608.722 -34.4845 591.021 -28.5156 581.906 -16.7191C571.766 -3.61577 581.835 14.6088 593.212 23.0147Z" fill="#D3ECF7"/>
<path d="M603.599 143.064C604.623 141.828 605.295 140.238 605.471 138.437C606.708 126.075 600.737 112.301 589.431 106.403C577.171 100.01 562.05 102.765 553.924 114.173C545.656 125.793 548.589 141.262 557.209 151.752C564.488 160.617 577.984 165.915 589.148 161.889C596.003 159.416 601.444 153.836 603.104 146.596C603.387 145.395 603.528 144.229 603.599 143.064Z" fill="#D3ECF7"/>
<path d="M322.577 87.7542C329.714 85.5644 336.003 81.1495 340.208 74.8981C343.917 69.353 344.2 62.3952 341.056 57.2739C340.844 52.5059 339.607 47.8791 337.134 43.5702C333.671 37.6013 328.372 33.1158 321.977 30.5375C309.328 25.4869 294.136 31.0673 286.646 42.0515C279.721 52.2233 280.852 67.1987 288.13 76.8761C296.15 87.5424 309.858 91.6392 322.613 87.7188L322.577 87.7542Z" fill="#D3ECF7"/>
<path d="M264.6 283.633C264.105 281.62 263.681 279.395 262.409 277.7C261.915 277.064 261.349 276.64 260.784 276.287C257.887 270.495 252.764 265.727 246.616 263.607C234.71 259.51 220.613 266.503 215.066 277.382C208.883 289.531 211.745 305.319 221.319 314.996C226.69 320.4 234.074 321.601 241.423 321.213C248.065 320.859 254.636 318.987 259.547 314.325C264.882 309.239 266.825 301.646 266.331 294.476C266.084 290.838 265.448 287.2 264.564 283.669L264.6 283.633Z" fill="#D3ECF7"/>
<path d="M403.061 -121.51C410.056 -121.228 417.653 -123.206 422.316 -128.751C425.885 -132.989 427.793 -138.428 426.909 -143.726C430.513 -155.699 423.659 -168.202 413.66 -174.807C408.431 -178.268 402.001 -180.493 395.747 -180.952C388.611 -181.482 382.216 -177.561 377.552 -172.476C368.79 -162.975 365.928 -149.73 371.511 -137.863C377.093 -125.961 390.943 -121.97 403.132 -121.51H403.061Z" fill="#D3ECF7"/>
<path d="M222.026 -114.376C232.625 -105.193 250.291 -101.555 260.996 -112.716C266.331 -118.261 268.486 -125.714 269.369 -133.166C269.793 -136.592 270.04 -140.3 269.369 -143.726C269.157 -144.786 268.769 -145.775 268.274 -146.728C267.991 -148 267.673 -149.271 267.214 -150.507C264.317 -157.995 258.664 -163.611 251.209 -166.613C243.896 -169.544 235.593 -168.626 228.385 -165.765C224.605 -164.282 220.577 -162.622 217.292 -160.22C213.582 -157.536 211.427 -153.615 210.402 -149.236C207.434 -136.662 212.381 -122.747 222.061 -114.341L222.026 -114.376Z" fill="#D3ECF7"/>
<path d="M270.924 141.192C265.801 137.483 259.123 135.647 252.658 135.894C248.029 133.916 242.942 133.174 238.101 134.552C228.244 137.413 222.415 146.949 221.39 156.732C220.365 166.41 223.722 177.253 227.926 185.906C232.342 194.983 240.893 200.634 250.962 201.128C260.254 201.587 269.44 196.819 275.234 189.685C286.893 175.38 286.54 152.529 270.888 141.192H270.924Z" fill="#D3ECF7"/>
<path d="M658.856 264.667C646.137 255.731 628.507 253.223 615.081 262.088C608.545 266.397 603.422 272.931 601.797 280.702C600.03 289.355 601.797 298.114 604.623 306.343C607.344 314.255 611.195 321.883 619.003 325.804C626.14 329.406 634.619 330.077 642.463 329.124C651.649 327.994 660.905 324.462 666.876 317.08C669.208 314.219 671.01 310.97 672.176 307.544C673.024 307.014 673.836 306.272 674.472 305.213C683.941 290.167 670.975 273.143 658.821 264.631L658.856 264.667Z" fill="#D3ECF7"/>
<path d="M58.2324 31.562C45.5133 22.6263 27.8831 20.1185 14.4574 28.9836C7.92123 33.2925 2.79834 39.8266 1.17312 47.5967C-0.593422 56.2499 1.17308 65.009 3.99954 73.2383C6.72001 81.1497 10.5711 88.7787 18.3792 92.6991C25.516 96.3016 33.9954 96.9727 41.8388 96.019C51.0248 94.8888 60.2815 91.3568 66.2524 83.9752C68.5842 81.1144 70.3861 77.8652 71.552 74.4392C72.4 73.9095 73.2127 73.1676 73.8486 72.1081C83.3173 57.0622 70.3508 40.0385 58.197 31.5267L58.2324 31.562Z" fill="#D3ECF7"/>
<path d="M191.5 -56.488C177.439 -63.1633 160.939 -60.0906 149.315 -50.0953C143.026 -44.6915 138.645 -36.8509 137.656 -28.6215C136.526 -19.2974 140.977 -11.0326 147.266 -4.46332C157.335 6.09704 172.74 12.1718 187.296 9.59354C199.344 7.43909 209.872 -2.97983 211.568 -14.741C212.557 -15.9772 213.193 -17.5313 213.299 -19.2266C214.359 -34.3784 205.244 -49.9187 191.536 -56.4527L191.5 -56.488Z" fill="#D3ECF7"/>
<path d="M174.542 69.7061C169.101 65.1146 162.105 62.1126 154.968 62.2892C154.791 62.2186 154.65 62.1479 154.474 62.0773C147.407 59.6756 140.2 62.7483 135.783 68.4347C126.986 79.8074 130.413 97.5726 139.705 107.568C149.457 118.058 168.323 119.859 178.145 108.416C188.038 96.9017 186.024 79.3835 174.506 69.7061H174.542Z" fill="#D3ECF7"/>
<path d="M325.157 -25.1605C330.951 -25.3018 337.24 -26.432 342.186 -29.54C348.616 -33.5664 352.326 -40.5949 352.079 -48.1885C352.079 -48.9302 351.973 -49.7073 351.902 -50.449C352.149 -51.1554 352.291 -51.8971 352.255 -52.6741C351.867 -65.4242 345.119 -78.81 331.763 -81.9181C325.757 -83.3308 319.08 -82.4833 314.063 -78.7395C309.399 -75.2429 306.396 -70.4748 304.629 -64.965C303.075 -60.091 302.58 -54.7931 302.509 -49.7072C302.439 -43.0319 303.146 -35.8268 308.163 -30.8822C312.614 -26.5026 319.08 -25.0192 325.157 -25.1605Z" fill="#D3ECF7"/>
<path d="M24.8447 338.625C30.6389 338.483 36.9278 337.353 41.8741 334.245C48.3043 330.219 52.0141 323.19 51.7668 315.597C51.7668 314.855 51.6608 314.078 51.5901 313.336C51.8374 312.63 51.9788 311.888 51.9434 311.111C51.5548 298.361 44.8067 284.975 31.4516 281.867C25.4454 280.454 18.7678 281.302 13.7508 285.046C9.08718 288.542 6.08402 293.31 4.31748 298.82C2.76292 303.694 2.26827 308.992 2.19761 314.078C2.12694 320.753 2.83358 327.958 7.85056 332.903C12.3022 337.282 18.7678 338.766 24.8447 338.625Z" fill="#D3ECF7"/>
<path d="M553.182 -98.4823C555.831 -104.381 556.503 -111.021 554.701 -117.307C552.793 -124.018 548.2 -129.704 542.194 -133.166C539.544 -134.684 536.753 -135.744 533.891 -136.379C527.213 -139.276 519.193 -139.099 513.046 -134.79C507.64 -131.011 504.072 -125.501 503.188 -118.932C502.27 -112.009 505.061 -105.228 508.806 -99.5419C512.551 -93.8555 516.932 -88.6989 523.469 -86.2619C528.591 -84.3194 534.845 -84.4606 539.933 -86.4738C545.656 -88.7342 550.638 -92.7253 553.217 -98.447L553.182 -98.4823Z" fill="#D3ECF7"/>
<path d="M96.6369 -126.985C88.0516 -134.084 74.2371 -133.519 64.9097 -127.62C59.1155 -123.947 54.8758 -118.402 54.3105 -111.444C53.6745 -104.133 58.5149 -97.5287 63.1079 -92.3369C71.8346 -82.5182 87.4862 -74.8187 99.6753 -83.5425C109.815 -90.7829 113.242 -104.84 107.695 -116.001C105.293 -120.839 101.336 -124.512 96.6369 -127.02V-126.985Z" fill="#D3ECF7"/>
<path d="M570.07 367.48C561.485 360.381 547.67 360.946 538.343 366.844C532.548 370.517 528.309 376.063 527.744 383.02C527.108 390.331 531.948 396.936 536.541 402.128C545.268 411.947 560.919 419.646 573.108 410.922C583.248 403.682 586.675 389.625 581.128 378.464C578.726 373.625 574.769 369.952 570.07 367.445V367.48Z" fill="#D3ECF7"/>
<path d="M166.451 353.423C165.744 352.752 165.002 352.117 164.26 351.446C161.575 348.585 158.466 346.148 154.933 344.488C154.368 344.24 153.767 344.028 153.166 343.887C151.47 343.075 149.704 342.368 147.902 341.839C141.118 339.825 133.31 340.355 127.127 343.958C114.232 351.446 114.161 368.681 118.471 381.219C123.029 394.358 134.653 406.154 149.598 404.742C163.801 403.4 173.128 390.402 173.764 376.804C174.082 369.847 172.033 362.748 168.323 356.743C168.041 355.507 167.44 354.306 166.486 353.423H166.451Z" fill="#D3ECF7"/>
<path d="M326.11 409.863C327.1 408.274 327.453 406.331 326.959 404.353C325.545 398.808 321.765 394.499 316.995 391.78C316.218 391.179 315.299 390.685 314.31 390.438C311.166 389.095 307.738 388.389 304.311 388.46C293.288 388.672 284.279 396.618 281.806 407.249C279.12 418.728 283.219 430.666 292.617 437.8C297.21 441.297 303.216 443.204 308.975 442.427C315.193 441.579 320.387 438.012 323.708 432.679C327.276 426.922 327.983 420.07 326.959 413.501C326.782 412.265 326.464 411.099 326.146 409.898L326.11 409.863Z" fill="#D3ECF7"/>
<path d="M712.806 159.381C712.665 158.463 712.241 157.615 711.676 156.909C710.121 151.046 706.305 145.642 701.288 142.251C690.936 135.258 677.299 137.413 668.36 145.642C659.527 153.801 657.513 166.939 663.555 177.323C669.455 187.495 681.962 193.711 693.551 190.25C699.946 188.343 705.316 183.998 708.955 178.453C712.7 172.731 713.831 166.021 712.806 159.346V159.381Z" fill="#D3ECF7"/>
<path d="M129.848 198.232C129.707 197.314 129.283 196.466 128.717 195.76C127.163 189.897 123.347 184.493 118.33 181.102C107.978 174.109 94.3403 176.264 85.4016 184.493C76.5689 192.652 74.5551 205.79 80.5967 216.174C86.4969 226.346 99.004 232.562 110.593 229.101C116.987 227.194 122.358 222.849 125.997 217.304C129.742 211.582 130.872 204.872 129.848 198.197V198.232Z" fill="#D3ECF7"/>
<path d="M641.968 -105.935C652.603 -97.1402 670.445 -94.2089 680.585 -105.617C683.552 -108.972 685.248 -112.963 686.803 -117.096C688.075 -120.486 689.205 -123.912 689.877 -127.479C690.725 -132 690.83 -136.556 689.841 -140.83C690.76 -147.752 688.499 -154.569 683.835 -159.902C678.783 -165.659 670.939 -168.52 663.343 -168.449C648.328 -168.273 635.326 -157.536 630.768 -143.514C626.423 -130.234 631.298 -114.8 642.003 -105.97L641.968 -105.935Z" fill="#D3ECF7"/>
</svg>
