<svg width="582" height="985" viewBox="0 0 582 985" fill="none" xmlns="http://www.w3.org/2000/svg">
<path fill-rule="evenodd" clip-rule="evenodd" d="M0 956.958C79.3556 991.223 169.698 993.643 250.523 960.237C324.354 929.752 356.733 883.08 370.925 849.275C384.95 815.878 388.916 777.776 382.688 736.062C382.072 732.051 381.387 728 380.598 723.946C439.72 721.513 494.7 704.115 534.158 660.864C595.429 591.472 591.761 479.81 556.396 405.239C545.163 382.229 530.781 360.321 513.485 339.714L513.466 339.772C482.717 303.135 442.789 270.726 395.317 244.132C353.648 220.77 307.54 203.121 261.945 192.633C260.965 190.494 259.949 188.355 258.881 186.273C206.111 82.3387 105.549 13.1258 0 0.780276V23.0013C95.3025 34.8033 186.038 95.7766 236.648 187.526C219.023 184.482 201.625 182.598 184.749 181.903C171.31 181.622 156.063 182.826 144.653 193.74C134.952 203.009 130.658 215.404 132.19 229.564C135.114 256.626 159.189 283.368 180.342 294.783C211.075 311.341 235.835 312.694 253.929 298.787C268.908 287.273 276.242 268.349 275.077 244.071C274.687 235.639 273.204 226.593 270.804 217.506C376.937 245.202 489.351 313.91 539.151 415.994C581.295 504.869 561.596 598.639 520.469 645.2C487.374 681.434 438.758 700.551 375.515 702.238C368.801 677.496 358.781 652.576 345.924 628.764C332.441 603.801 316.62 580.624 298.838 559.438C222.688 468.705 111.164 415.086 0 419.285V441.449C130.478 436.318 261.496 514.98 329.191 640.452C341.071 662.45 349.439 683.093 355.167 702.165C346.916 701.91 338.447 701.395 329.761 700.621C252.996 693.72 173.998 666.728 121.424 645.418C70.3638 623.385 30.0926 597.539 0 567.333V596.377C30.0793 623.066 68.0693 646.218 114.402 666.211C178.766 692.306 272.873 723.105 360.766 724.218C372.754 781.328 360.892 821.711 353.231 839.961C329.224 897.175 274.476 926.86 243.976 939.454C165.126 972.025 76.6919 968.52 0 933.084V956.958ZM188.955 274.753C180.504 270.184 172.463 263.313 166.021 255.638L166.02 255.677C158.136 246.283 152.641 235.692 151.66 226.677C150.96 220.06 152.731 214.93 157.252 210.611C163.624 204.495 173.952 203.859 184.032 204.06C204.527 204.861 226.163 207.628 248.285 212.229C256.978 236.216 260.756 266.883 243.051 280.487C231.136 289.625 212.943 287.684 188.955 274.753Z" fill="#376ADA" fill-opacity="0.1"/>
</svg>
