<svg width="101" height="104" viewBox="0 0 101 104" fill="none" xmlns="http://www.w3.org/2000/svg">
<path d="M56.2628 27.7271C57.6722 28.1809 59.2646 28.4044 60.7282 28.1335C62.5713 27.7948 63.6283 26.2978 63.8926 24.5231C63.9468 24.1641 63.9739 23.7983 63.9739 23.4257C64.6041 22.2945 64.2721 20.8517 63.5606 19.7679C62.7339 18.5148 61.5888 17.3903 60.3081 16.6113C57.828 15.094 54.1825 14.9992 52.1294 17.3226C50.0695 19.6528 50.5099 23.209 52.5156 25.424C53.5117 26.5281 54.8669 27.2732 56.2695 27.7271H56.2628Z" fill="white" fill-opacity="0.1"/>
<path d="M66.2507 65.7889C65.2411 63.5264 63.2489 61.6704 60.7214 61.3859C58.1194 61.0947 55.7478 62.7068 55.1244 65.2537C54.5146 67.7465 54.9212 70.7947 57.1843 72.3188C58.2008 73.0097 59.4814 73.2536 60.6943 73.3281C61.9886 73.4094 63.398 73.2807 64.5228 72.5965C65.8441 71.7972 66.6098 70.368 66.7318 68.8438C66.7928 68.0852 66.6572 67.3468 66.3998 66.6559C66.4269 66.3714 66.3794 66.0666 66.2507 65.7821V65.7889Z" fill="white" fill-opacity="0.1"/>
<path d="M49.7713 76.0714C47.4336 74.9673 44.3369 74.3712 42.4329 76.5863C41.6875 77.4601 41.2199 78.5439 41.0234 79.6751C40.8134 80.9282 40.7321 82.3101 41.2877 83.4887C41.8366 84.6538 43.1105 85.6225 44.1879 86.2795C45.2517 86.9366 46.5256 87.3565 47.7927 87.2346C49.3174 87.0923 50.6861 86.354 51.6076 85.128C52.0481 84.5454 52.3327 83.8884 52.4885 83.1975C52.8409 83.0349 53.1255 82.7301 53.2407 82.3372C54.0267 79.6412 52.1159 77.1688 49.7781 76.0647L49.7713 76.0714Z" fill="white" fill-opacity="0.1"/>
<path d="M44.4589 48.1432C45.1569 47.4319 45.6312 46.5513 45.9497 45.6166C46.1123 45.393 46.2139 45.1153 46.2478 44.8037C46.2614 44.7021 46.2478 44.6005 46.2478 44.5057C46.2614 44.4379 46.2817 44.3702 46.2885 44.3092C46.3562 43.9773 46.3088 43.6251 46.1665 43.327C45.848 41.5658 44.6758 39.9063 43.0834 39.1273C40.9354 38.0841 38.3673 38.5312 36.6123 40.1366C34.9318 41.6742 34.4711 44.2212 35.3316 46.3007C36.2599 48.5225 38.4486 49.9924 40.9015 49.7418C42.2296 49.6063 43.5035 49.1118 44.4521 48.1432H44.4589Z" fill="white" fill-opacity="0.1"/>
<path d="M29.6329 60.0244C28.3726 60.5799 27.3562 61.6095 27.0919 62.9981C26.8615 64.2309 26.9903 65.545 27.3088 66.7508C27.6137 67.9158 28.1829 69.0403 29.1519 69.7854C30.236 70.6253 31.7539 70.815 33.0887 70.6795C34.6947 70.5237 36.1515 69.887 37.1272 68.5593C37.1611 68.5119 37.1882 68.4578 37.2289 68.4036C37.5406 68.3155 37.8116 68.1258 37.9472 67.8142C38.8958 65.5992 38.4757 63.1742 36.9308 61.3317C35.1351 59.1845 32.0791 58.9474 29.6397 60.0176L29.6329 60.0244Z" fill="white" fill-opacity="0.1"/>
<path d="M77.6819 23.1277C78.8542 23.9947 80.2975 24.4486 81.7475 24.1979C83.0824 23.9676 84.2682 23.0803 85.0068 21.9626C85.7047 20.8991 85.9419 19.5647 85.8132 18.298C85.8945 16.4217 84.9662 14.525 83.2383 13.5564C80.6566 12.1 77.2618 13.2448 75.5136 15.5072C73.5688 18.0203 75.5 21.5155 77.6819 23.1277Z" fill="white" fill-opacity="0.1"/>
<path d="M79.674 46.1518C79.8706 45.9147 79.9993 45.6099 80.0332 45.2644C80.2703 42.8936 79.1252 40.2518 76.9568 39.1206C74.6056 37.8945 71.7054 38.4229 70.1469 40.6108C68.5613 42.8394 69.1237 45.8063 70.7771 47.8181C72.173 49.5183 74.7614 50.5344 76.9026 49.7622C78.2172 49.288 79.2607 48.2178 79.5792 46.8291C79.6334 46.5988 79.6605 46.3753 79.674 46.1518Z" fill="white" fill-opacity="0.1"/>
<path d="M25.7773 35.544C27.1461 35.124 28.3523 34.2773 29.1586 33.0783C29.8701 32.0149 29.9243 30.6804 29.3212 29.6982C29.2806 28.7838 29.0434 27.8964 28.5691 27.07C27.905 25.9252 26.8886 25.065 25.6622 24.5705C23.2363 23.6018 20.3226 24.6721 18.8861 26.7787C17.558 28.7296 17.7748 31.6017 19.1707 33.4577C20.7089 35.5034 23.338 36.2891 25.7841 35.5372L25.7773 35.544Z" fill="white" fill-opacity="0.1"/>
<path d="M14.6579 73.1114C14.563 72.7253 14.4817 72.2985 14.2378 71.9734C14.1429 71.8514 14.0345 71.7701 13.926 71.7024C13.3704 70.5915 12.3879 69.6771 11.2088 69.2707C8.92532 68.4849 6.22168 69.8261 5.15784 71.9124C3.97203 74.2426 4.5209 77.2705 6.35721 79.1265C7.38717 80.1629 8.80337 80.3932 10.2128 80.3187C11.4867 80.2509 12.747 79.8919 13.6889 78.9978C14.7121 78.0223 15.0848 76.566 14.9899 75.1909C14.9425 74.4932 14.8205 73.7955 14.6511 73.1181L14.6579 73.1114Z" fill="white" fill-opacity="0.1"/>
<path d="M41.2132 -4.59057C42.5548 -4.53638 44.0117 -4.9157 44.9061 -5.97918C45.5905 -6.79204 45.9564 -7.83519 45.787 -8.85125C46.4782 -11.1476 45.1636 -13.5455 43.246 -14.8122C42.2431 -15.476 41.0099 -15.9027 39.8105 -15.9908C38.4418 -16.0924 37.2153 -15.3405 36.3208 -14.3651C34.6404 -12.543 34.0915 -10.0028 35.1622 -7.72683C36.2328 -5.44407 38.889 -4.67863 41.2267 -4.59057H41.2132Z" fill="white" fill-opacity="0.1"/>
<path d="M6.49272 -3.22229C8.52554 -1.46111 11.9135 -0.763436 13.9667 -2.90395C14.9899 -3.96743 15.4032 -5.39668 15.5726 -6.82594C15.6539 -7.483 15.7013 -8.19424 15.5726 -8.85129C15.5319 -9.05451 15.4574 -9.2442 15.3625 -9.42709C15.3083 -9.67094 15.2474 -9.91476 15.1593 -10.1518C14.6036 -11.5879 13.5195 -12.6649 12.0897 -13.2407C10.6871 -13.8029 9.09472 -13.6268 7.7124 -13.0781C6.98737 -12.7936 6.21489 -12.4752 5.58471 -12.0146C4.87323 -11.4998 4.45988 -10.7479 4.26338 -9.908C3.69419 -7.49654 4.64287 -4.82767 6.4995 -3.21551L6.49272 -3.22229Z" fill="white" fill-opacity="0.1"/>
<path d="M15.8707 45.7927C14.8882 45.0815 13.6076 44.7292 12.3675 44.7767C11.4799 44.3973 10.5041 44.2551 9.57581 44.5193C7.68529 45.0679 6.56726 46.8969 6.37075 48.7732C6.17424 50.6292 6.81795 52.7088 7.6243 54.3683C8.47131 56.1092 10.1111 57.193 12.0423 57.2878C13.8244 57.3759 15.5862 56.4614 16.6974 55.0931C18.9335 52.3497 18.8657 47.9671 15.864 45.7927H15.8707Z" fill="white" fill-opacity="0.1"/>
<path d="M90.2718 69.4738C87.8324 67.7601 84.4512 67.2791 81.8763 68.9793C80.6227 69.8057 79.6402 71.0589 79.3285 72.5491C78.9897 74.2087 79.3285 75.8886 79.8705 77.4669C80.3923 78.9842 81.1309 80.4473 82.6284 81.1992C83.9972 81.8901 85.6234 82.0188 87.1277 81.836C88.8895 81.6192 90.6648 80.9418 91.8099 79.5261C92.2571 78.9774 92.6027 78.3542 92.8263 77.6972C92.989 77.5956 93.1448 77.4533 93.2668 77.2501C95.0828 74.3645 92.596 71.0995 90.265 69.467L90.2718 69.4738Z" fill="white" fill-opacity="0.1"/>
<path d="M-24.921 24.767C-27.3604 23.0532 -30.7417 22.5723 -33.3166 24.2725C-34.5701 25.0989 -35.5527 26.352 -35.8643 27.8423C-36.2032 29.5018 -35.8644 31.1817 -35.3223 32.76C-34.8005 34.2773 -34.0619 35.7405 -32.5644 36.4924C-31.1957 37.1833 -29.5694 37.312 -28.0651 37.1291C-26.3034 36.9123 -24.528 36.2349 -23.3829 34.8192C-22.9357 34.2705 -22.5901 33.6474 -22.3665 32.9903C-22.2038 32.8887 -22.048 32.7465 -21.926 32.5432C-20.11 29.6576 -22.5969 26.3927 -24.9278 24.7602L-24.921 24.767Z" fill="white" fill-opacity="0.1"/>
<path d="M0.638245 7.87998C-2.05862 6.59974 -5.22304 7.18906 -7.45236 9.10603C-8.65849 10.1424 -9.49871 11.6462 -9.68844 13.2245C-9.90528 15.0127 -9.05152 16.5978 -7.84538 17.8577C-5.91421 19.8831 -2.95984 21.0482 -0.168106 20.5537C2.14252 20.1405 4.16179 18.1422 4.48704 15.8866C4.67677 15.6495 4.79873 15.3514 4.81906 15.0263C5.02234 12.1204 3.27413 9.13991 0.645027 7.88676L0.638245 7.87998Z" fill="white" fill-opacity="0.1"/>
<path d="M-2.61426 32.0826C-3.65777 31.202 -4.99946 30.6262 -6.36822 30.6601C-6.4021 30.6466 -6.42917 30.633 -6.46305 30.6195C-7.81826 30.1588 -9.2006 30.7482 -10.0476 31.8387C-11.7348 34.0199 -11.0775 37.4271 -9.29544 39.344C-7.42525 41.3558 -3.80687 41.7013 -1.92313 39.5066C-0.0258408 37.2984 -0.412052 33.9386 -2.62104 32.0826H-2.61426Z" fill="white" fill-opacity="0.1"/>
<path d="M26.272 13.8882C27.3833 13.8611 28.5894 13.6444 29.5381 13.0483C30.7713 12.2761 31.4828 10.9281 31.4354 9.47173C31.4354 9.32948 31.415 9.18045 31.4015 9.0382C31.4489 8.90273 31.476 8.76047 31.4692 8.61145C31.3947 6.16612 30.1005 3.59888 27.5391 3.00279C26.3872 2.73184 25.1065 2.89439 24.1443 3.61241C23.2499 4.28301 22.6739 5.19748 22.3351 6.25419C22.037 7.18897 21.9421 8.20504 21.9285 9.18046C21.915 10.4607 22.0505 11.8426 23.0127 12.7909C23.8665 13.6308 25.1065 13.9153 26.272 13.8882Z" fill="white" fill-opacity="0.1"/>
<path d="M-31.3244 83.6581C-30.2131 83.631 -29.007 83.4142 -28.0584 82.8181C-26.8251 82.0459 -26.1136 80.6979 -26.161 79.2416C-26.161 79.0993 -26.1814 78.9503 -26.1949 78.808C-26.1475 78.6726 -26.1204 78.5303 -26.1272 78.3813C-26.2017 75.936 -27.4959 73.3687 -30.0573 72.7726C-31.2092 72.5017 -32.4899 72.6642 -33.4521 73.3822C-34.3465 74.0528 -34.9225 74.9673 -35.2613 76.024C-35.5594 76.9588 -35.6543 77.9749 -35.6679 78.9503C-35.6814 80.2305 -35.5459 81.6124 -34.5837 82.5607C-33.7299 83.4007 -32.4899 83.6852 -31.3244 83.6581Z" fill="white" fill-opacity="0.1"/>
<path d="M70.0046 -0.174052C70.5128 -1.30527 70.6416 -2.57875 70.296 -3.78448C69.9301 -5.0715 69.0492 -6.16207 67.8973 -6.8259C67.3891 -7.11717 66.8537 -7.32036 66.3049 -7.44229C65.0242 -7.99774 63.4861 -7.9639 62.307 -7.1375C61.2703 -6.41271 60.5859 -5.35597 60.4165 -4.09605C60.2403 -2.76839 60.7756 -1.46783 61.4939 -0.377257C62.2122 0.71332 63.0524 1.7023 64.306 2.16969C65.2885 2.54224 66.4878 2.51515 67.4636 2.12905C68.5613 1.69552 69.5167 0.930079 70.0114 -0.167272L70.0046 -0.174052Z" fill="white" fill-opacity="0.1"/>
<path d="M-17.5555 -5.64048C-19.2021 -7.00201 -21.8515 -6.89362 -23.6404 -5.76241C-24.7517 -5.05793 -25.5648 -3.99444 -25.6732 -2.66001C-25.7952 -1.25784 -24.8668 0.00883865 -23.986 1.00458C-22.3123 2.88769 -19.3105 4.36436 -16.9727 2.69124C-15.028 1.30262 -14.3708 -1.39334 -15.4346 -3.53385C-15.8954 -4.46186 -16.6543 -5.16633 -17.5555 -5.64726V-5.64048Z" fill="white" fill-opacity="0.1"/>
<path d="M73.2436 89.1922C71.597 87.8307 68.9476 87.9391 67.1587 89.0703C66.0474 89.7748 65.2343 90.8383 65.1259 92.1727C65.0039 93.5749 65.9322 94.8415 66.8131 95.8373C68.4868 97.7204 71.4886 99.1971 73.8263 97.5239C75.7711 96.1353 76.4283 93.4394 75.3645 91.2989C74.9037 90.3708 74.1448 89.6664 73.2436 89.1854V89.1922Z" fill="white" fill-opacity="0.1"/>
<path d="M-4.16602 86.4963C-4.30154 86.3676 -4.44384 86.2457 -4.58613 86.117C-5.10111 85.5683 -5.69737 85.1009 -6.37498 84.7825C-6.4834 84.7351 -6.59859 84.6945 -6.71378 84.6674C-7.03903 84.5116 -7.37787 84.3761 -7.72345 84.2745C-9.02445 83.8884 -10.522 83.99 -11.7078 84.681C-14.181 86.117 -14.1945 89.4226 -13.3679 91.8273C-12.4938 94.3471 -10.2644 96.6095 -7.39817 96.3386C-4.6742 96.0812 -2.88534 93.5885 -2.76337 90.9806C-2.70239 89.6461 -3.09538 88.2846 -3.80687 87.1331C-3.86108 86.896 -3.97628 86.6657 -4.15924 86.4963H-4.16602Z" fill="white" fill-opacity="0.1"/>
<path d="M26.4549 97.3208C26.6447 97.016 26.7125 96.6434 26.6176 96.2641C26.3465 95.2006 25.6215 94.3742 24.7067 93.8526C24.5577 93.7375 24.3815 93.6426 24.1917 93.5952C23.5887 93.3378 22.9314 93.2023 22.2741 93.2159C20.16 93.2565 18.4321 94.7806 17.9578 96.8195C17.4428 99.021 18.2288 101.311 20.0312 102.679C20.9121 103.349 22.0641 103.715 23.1686 103.566C24.3611 103.404 25.3572 102.72 25.9942 101.697C26.6785 100.593 26.8141 99.2784 26.6176 98.0185C26.5837 97.7814 26.5227 97.5579 26.4617 97.3276L26.4549 97.3208Z" fill="white" fill-opacity="0.1"/>
<path d="M100.619 49.2812C100.592 49.1051 100.51 48.9425 100.402 48.807C100.104 47.6826 99.372 46.6462 98.4098 45.9959C96.4244 44.6547 93.8088 45.0679 92.0945 46.6462C90.4005 48.211 90.0143 50.7308 91.173 52.7223C92.3046 54.6731 94.7033 55.8653 96.9258 55.2015C98.1523 54.8357 99.1823 54.0025 99.8802 52.939C100.598 51.8417 100.815 50.5547 100.619 49.2744V49.2812Z" fill="white" fill-opacity="0.1"/>
<path d="M-11.186 56.7324C-11.2131 56.5563 -11.2944 56.3937 -11.4028 56.2582C-11.701 55.1338 -12.4328 54.0974 -13.395 53.4471C-15.3804 52.1059 -17.9959 52.5191 -19.7103 54.0974C-21.4043 55.6621 -21.7905 58.182 -20.6318 60.1734C-19.5002 62.1243 -17.1015 63.3165 -14.879 62.6527C-13.6525 62.2869 -12.6225 61.4537 -11.9246 60.3902C-11.2063 59.2928 -10.9895 58.0059 -11.186 56.7256V56.7324Z" fill="white" fill-opacity="0.1"/>
<path d="M87.0328 -1.60332C89.0724 0.0833492 92.4943 0.64555 94.4391 -1.54238C95.0082 -2.18589 95.3335 -2.95132 95.6317 -3.74385C95.8756 -4.39413 96.0924 -5.05119 96.2212 -5.73534C96.3838 -6.60238 96.4041 -7.47618 96.2144 -8.2958C96.3905 -9.62346 95.9569 -10.9308 95.0624 -11.9537C94.0935 -13.0578 92.5892 -13.6064 91.1323 -13.5929C88.2525 -13.559 85.759 -11.4998 84.8848 -8.81062C84.0514 -6.26368 84.9865 -3.30354 87.0396 -1.6101L87.0328 -1.60332Z" fill="white" fill-opacity="0.1"/>
</svg>
