<svg width="88" height="86" viewBox="0 0 88 86" fill="none" xmlns="http://www.w3.org/2000/svg">
<path d="M19.7456 40.1526C19.4873 40.1526 19.229 40.1103 18.9767 40.0258C17.8953 39.6575 17.2165 38.5767 17.3607 37.4355C17.7211 34.5615 14.9397 31.7116 12.4766 29.5501C9.55096 26.978 6.40906 24.3757 2.8166 22.9085C2.61835 22.8602 2.42611 22.7817 2.25189 22.6911C2.05966 22.6186 1.86141 22.5522 1.66316 22.4858C0.401597 22.0752 -0.289261 20.7107 0.125254 19.4427C0.539768 18.1748 1.89145 17.4804 3.15301 17.897C3.40533 17.9816 3.65764 18.0661 3.90995 18.1627C7.0038 18.1144 10.3019 16.2064 12.6088 13.097C15.0057 9.8667 16.2613 5.77304 17.2645 1.82429C17.5469 0.689172 18.6042 -0.0715968 19.7576 0.000857432C20.9171 0.0853873 21.8542 0.985027 21.9804 2.15033C22.8214 9.90293 29.4897 16.8706 37.1613 18.0178C38.2546 18.1808 39.0957 19.0744 39.2038 20.1854C39.3059 21.2903 38.6451 22.3288 37.5998 22.6911C30.6011 25.1244 25.8852 31.9411 21.8302 38.951C21.3917 39.7118 20.5927 40.1526 19.7516 40.1526H19.7456ZM10.0616 21.4533C12.0921 22.8602 13.9424 24.43 15.6365 25.9153C17.4448 27.5033 19.3732 29.4112 20.6708 31.6332C23.4102 27.4851 26.5461 23.6813 30.4689 20.9703C25.8252 18.7786 21.9323 14.9868 19.5654 10.4161C18.7544 12.3664 17.7511 14.2502 16.4595 15.9891C14.6753 18.3921 12.4646 20.2578 10.0676 21.4594L10.0616 21.4533Z" fill="#F9A718" fill-opacity="0.2"/>
<path d="M41.3556 117.798C41.2715 117.798 41.1874 117.798 41.1033 117.786C39.9438 117.665 39.0427 116.723 38.9586 115.558C38.1055 103.5 36.7238 92.0704 29.2986 84.7887C22.7144 78.3282 12.682 76.6195 2.10884 75.3153C0.793211 75.1523 -0.143952 73.9447 0.018249 72.6224C0.0542937 72.3266 0.144406 72.0489 0.27657 71.7953C0.408734 70.6179 1.38795 69.688 2.60146 69.6579C12.6579 69.4043 22.5402 65.1898 29.7071 58.0893C36.874 50.9949 41.2174 41.129 41.6199 31.0217C41.674 29.7296 42.7253 28.7092 44.0169 28.7031C45.3025 28.7031 46.3598 29.7175 46.4199 31.0096C46.8644 40.9358 51.1537 50.7232 58.1945 57.872C65.1391 64.9242 74.8352 69.4345 84.8015 70.2556C85.991 70.3522 86.9342 71.3183 87.0063 72.5198C87.0784 73.7213 86.2613 74.79 85.0899 75.0315C66.2745 78.8897 49.6279 95.3791 43.6745 116.059C43.3741 117.103 42.4249 117.804 41.3676 117.804L41.3556 117.798ZM14.7545 72.4775C21.567 74.0293 27.7667 76.535 32.6568 81.329C38.9586 87.5118 41.4817 95.7836 42.7433 104.865C45.9633 97.9754 50.3427 91.6477 55.6774 86.2318C61.3304 80.4958 67.7884 76.0882 74.691 73.2081C67.1816 70.9258 60.219 66.802 54.7702 61.2713C49.9462 56.3746 46.2757 50.3609 44.0409 43.8762C41.7941 50.4998 38.0395 56.604 33.0713 61.5249C27.9529 66.5906 21.6031 70.3462 14.7545 72.4775Z" fill="#F9A718" fill-opacity="0.2"/>
</svg>
