<svg width="62" height="62" viewBox="0 0 62 62" fill="none" xmlns="http://www.w3.org/2000/svg">
<circle cx="31" cy="31" r="15" fill="#044C68"/>
<path d="M59.4905 21.5413L51.763 24.2124C51.585 24.274 51.3898 24.2623 51.2204 24.1799C51.051 24.0975 50.9213 23.9512 50.8598 23.7732C50.7982 23.5952 50.8099 23.4 50.8923 23.2306C50.9747 23.0612 51.121 22.9315 51.299 22.8699L59.0265 20.1988C59.2045 20.1372 59.3997 20.1489 59.5691 20.2313C59.7385 20.3137 59.8682 20.46 59.9298 20.638C59.9913 20.816 59.9796 21.0112 59.8972 21.1806C59.8148 21.35 59.6685 21.4797 59.4905 21.5413Z" fill="#044C68" stroke="#044C68" stroke-width="2.84091"/>
<path d="M59.8318 44.7594L58.5543 44.1383C58.5131 44.2231 58.4554 44.2989 58.3846 44.3611C58.3137 44.4234 58.2312 44.4709 58.1418 44.5009C58.0524 44.531 57.9579 44.5429 57.8639 44.536C57.7698 44.5292 57.6781 44.5036 57.594 44.4609L57.583 44.4553L57.5719 44.4499L50.2194 40.8748C50.2193 40.8748 50.2192 40.8747 50.2191 40.8747C50.0498 40.7922 49.9202 40.6459 49.8588 40.4679C49.7972 40.2898 49.809 40.0946 49.8914 39.9252C49.9739 39.7558 50.1202 39.626 50.2983 39.5645C50.4764 39.503 50.6716 39.5148 50.841 39.5972L50.8412 39.5973L58.1926 43.173L58.2038 43.1784L58.215 43.1837C58.3005 43.2234 58.3773 43.2798 58.4408 43.3496C58.5043 43.4193 58.5532 43.501 58.5848 43.5898C58.6164 43.6787 58.63 43.773 58.6248 43.8671C58.6195 43.9613 58.5956 44.0535 58.5543 44.1383L59.8318 44.7594Z" fill="#044C68" stroke="#044C68" stroke-width="2.84091"/>
<path d="M38.6885 51.0989L41.3597 58.8264C41.4212 59.0044 41.4095 59.1996 41.3272 59.369C41.2448 59.5384 41.0985 59.6682 40.9205 59.7297C40.7425 59.7912 40.5473 59.7795 40.3779 59.6972C40.2085 59.6148 40.0787 59.4685 40.0172 59.2905L37.346 51.563C37.2845 51.385 37.2962 51.1898 37.3786 51.0204C37.4609 50.851 37.6072 50.7212 37.7853 50.6597C37.9633 50.5982 38.1585 50.6099 38.3279 50.6922C38.4973 50.7746 38.627 50.9209 38.6885 51.0989Z" fill="#044C68" stroke="#044C68" stroke-width="2.84091"/>
<path d="M21.9757 50.6194L21.9701 50.6304L21.9647 50.6415L18.3894 57.9942L18.384 58.0053L18.3788 58.0165C18.3391 58.102 18.2827 58.1788 18.213 58.2423C18.1432 58.3058 18.0615 58.3547 17.9727 58.3863C17.8838 58.4179 17.7895 58.4315 17.6954 58.4262C17.6013 58.421 17.5091 58.3971 17.4242 58.3558C17.3394 58.3146 17.2637 58.2569 17.2014 58.186C17.1392 58.1152 17.0916 58.0327 17.0616 57.9433C17.0315 57.8539 17.0196 57.7594 17.0265 57.6654C17.0334 57.5713 17.0589 57.4795 17.1016 57.3955L17.1072 57.3845L17.1126 57.3734L20.6879 50.0206L20.6933 50.0095L20.6985 49.9983C20.7382 49.9128 20.7946 49.8361 20.8643 49.7726C20.9341 49.7091 21.0157 49.6601 21.1046 49.6285C21.1935 49.597 21.2878 49.5834 21.3819 49.5886C21.4761 49.5939 21.5683 49.6178 21.6531 49.659C21.7379 49.7003 21.8136 49.758 21.8759 49.8288C21.9382 49.8997 21.9857 49.9822 22.0157 50.0716C22.0458 50.161 22.0577 50.2554 22.0508 50.3495C22.044 50.4435 22.0184 50.5353 21.9757 50.6194Z" fill="#044C68" stroke="#044C68" stroke-width="2.84091"/>
<path d="M10.5905 40.4228L10.5792 40.4275L10.5678 40.4325L3.0786 43.7122L3.06729 43.7172L3.05608 43.7223C2.97036 43.7617 2.87767 43.7835 2.78342 43.7867C2.68914 43.7898 2.59521 43.7741 2.5071 43.7405C2.41896 43.707 2.33839 43.6562 2.27011 43.5911C2.20183 43.5261 2.14717 43.4481 2.10933 43.3617C2.0715 43.2753 2.05125 43.1823 2.04977 43.088C2.04828 42.9937 2.06559 42.9001 2.10069 42.8125C2.13579 42.725 2.18796 42.6453 2.25418 42.5782C2.32041 42.511 2.39934 42.4577 2.48635 42.4214L2.49774 42.4166L2.50905 42.4117L9.99829 39.1319L10.0096 39.127L10.0208 39.1218C10.1065 39.0825 10.1992 39.0606 10.2935 39.0575C10.3877 39.0544 10.4816 39.0701 10.5698 39.1036C10.6579 39.1372 10.7385 39.188 10.8068 39.253C10.8751 39.3181 10.9297 39.3961 10.9676 39.4824C11.0054 39.5688 11.0256 39.6619 11.0271 39.7562C11.0286 39.8505 11.0113 39.9441 10.9762 40.0317C10.9411 40.1192 10.8889 40.1989 10.8227 40.266C10.7565 40.3332 10.6776 40.3864 10.5905 40.4228Z" fill="#044C68" stroke="#044C68" stroke-width="2.84091"/>
<path d="M44.664 3.47396C44.7254 3.64661 44.7176 3.83618 44.6426 4.00308L41.0755 11.3412C41.0755 11.3413 41.0755 11.3413 41.0754 11.3414C40.993 11.5109 40.8466 11.6407 40.6684 11.7023C40.4902 11.7639 40.2949 11.7522 40.1253 11.6697C39.9557 11.5873 39.8259 11.4408 39.7643 11.2626C39.7027 11.0845 39.7144 10.8892 39.7968 10.7196C39.7968 10.7196 39.7968 10.7196 39.7968 10.7196C39.7968 10.7196 39.7968 10.7195 39.7968 10.7195L43.3657 3.38221C43.4506 3.22011 43.5949 3.09693 43.7686 3.03857C43.9452 2.97926 44.1379 2.99166 44.3054 3.07309C44.4729 3.15453 44.6017 3.29848 44.664 3.47396Z" fill="#044C68" stroke="#044C68" stroke-width="2.84091"/>
<path d="M21.8819 2.2241C22.0463 2.30507 22.1729 2.44638 22.2354 2.61834L24.7952 10.3656C24.7953 10.3657 24.7953 10.3657 24.7953 10.3658C24.8544 10.5448 24.8399 10.7399 24.7552 10.9082C24.6704 11.0766 24.5222 11.2045 24.3431 11.2636C24.1641 11.3227 23.9689 11.3083 23.8005 11.2235C23.6322 11.1388 23.5044 10.9906 23.4452 10.8117C23.4452 10.8117 23.4452 10.8116 23.4452 10.8116C23.4452 10.8116 23.4452 10.8115 23.4451 10.8115L20.8873 3.06362C20.8351 2.88821 20.8527 2.6993 20.9365 2.53635C21.0217 2.37074 21.1685 2.24523 21.3453 2.18682C21.5221 2.12842 21.7148 2.14181 21.8819 2.2241Z" fill="#044C68" stroke="#044C68" stroke-width="2.84091"/>
<path d="M3.52421 18.2881C3.7016 18.2422 3.88975 18.2667 4.04937 18.3562L11.0438 22.5575C11.0438 22.5575 11.0439 22.5576 11.0439 22.5576C11.2055 22.6547 11.3218 22.812 11.3674 22.9949C11.4131 23.1778 11.3841 23.3714 11.287 23.533C11.1899 23.6946 11.0326 23.811 10.8496 23.8567C10.6668 23.9023 10.4732 23.8734 10.3117 23.7763C10.3116 23.7763 10.3116 23.7763 10.3116 23.7763C10.3116 23.7763 10.3115 23.7763 10.3115 23.7762L3.31814 19.5732C3.16417 19.4743 3.05422 19.3197 3.01143 19.1415C2.96794 18.9605 2.99732 18.7695 3.09323 18.6099C3.18914 18.4503 3.34391 18.3347 3.52421 18.2881Z" fill="#044C68" stroke="#044C68" stroke-width="2.84091"/>
</svg>
