<svg width="63" height="62" viewBox="0 0 63 62" fill="none" xmlns="http://www.w3.org/2000/svg">
<path d="M24.4619 39.0518L23.5293 40.1233C25.0044 41.4072 26.7597 42.3277 28.6545 42.8112C30.5494 43.2947 32.5311 43.3276 34.441 42.9073C36.3509 42.487 38.1357 41.6253 39.6526 40.3911C41.1695 39.1568 42.3762 37.5845 43.1761 35.8C43.9759 34.0155 44.3467 32.0685 44.2587 30.1149C44.1706 28.1613 43.6262 26.2555 42.6691 24.5502C41.712 22.8449 40.3687 21.3874 38.747 20.2947C37.1253 19.2019 35.2701 18.5042 33.3302 18.2574L33.3174 18.2558L33.3046 18.2544C33.2108 18.2441 33.1199 18.2153 33.0374 18.1696C32.9548 18.1239 32.8822 18.0622 32.8238 17.9881C32.7653 17.914 32.7222 17.829 32.697 17.738C32.6718 17.6471 32.665 17.552 32.677 17.4584C32.6879 17.3728 32.7143 17.2899 32.7549 17.2139C32.7594 17.2081 32.766 17.1998 32.7752 17.1888C32.8066 17.1511 32.8482 17.1051 32.8953 17.0558C32.9172 17.0329 32.9386 17.011 32.9585 16.991C32.9832 16.9772 33.01 16.9625 33.038 16.9475C33.0981 16.9155 33.1536 16.8877 33.1984 16.8677C33.2114 16.8618 33.2212 16.8576 33.228 16.8549C33.3121 16.8362 33.399 16.8331 33.4844 16.8456L33.4975 16.8475L33.5107 16.8492C35.6701 17.1246 37.735 17.9018 39.54 19.1187C41.345 20.3355 42.84 21.9581 43.9053 23.8565C44.9705 25.755 45.5764 27.8765 45.6744 30.0511C45.7725 32.2258 45.3599 34.3932 44.4697 36.3798C43.5796 38.3664 42.2366 40.1169 40.5484 41.4912C38.8602 42.8655 36.8736 43.8253 34.7477 44.2939C32.6218 44.7624 30.4158 44.7267 28.3063 44.1895C26.1967 43.6522 24.2423 42.6285 22.5994 41.2002L22.5984 41.1993C22.4676 41.0858 22.3831 40.9289 22.3598 40.7583C22.3625 40.7457 22.3666 40.728 22.3729 40.7047C22.3969 40.6161 22.4372 40.5042 22.4893 40.3814C22.5127 40.326 22.5367 40.2729 22.5597 40.2238C22.605 40.1941 22.6543 40.1629 22.7058 40.1319C22.82 40.063 22.9251 40.0074 23.0095 39.9711C23.0316 39.9616 23.0486 39.955 23.0607 39.9506C23.2329 39.9496 23.4001 40.0112 23.5309 40.1247L24.4619 39.0518ZM24.4619 39.0518C24.0349 38.6813 23.4781 38.4955 22.9141 38.5355C22.3501 38.5754 21.4545 39.2648 21.4545 39.2648L33.6904 15.4401C33.4103 15.3991 33.1247 15.4143 32.8505 15.4848C32.5763 15.5554 32.0934 15.851 32.0934 15.851C32.0934 15.851 31.6787 16.2366 31.537 16.4817C31.3952 16.7268 31.3038 16.9977 31.2679 17.2785C31.2321 17.5594 31.2526 17.8446 31.3282 18.1174C31.4038 18.3902 31.5331 18.6453 31.7084 18.8676C31.8837 19.0899 32.1015 19.2751 32.3492 19.4122C32.5969 19.5494 32.8694 19.6358 33.1509 19.6665C34.8708 19.8853 36.5155 20.5038 37.9532 21.4726C39.391 22.4414 40.5819 23.7335 41.4304 25.2454C42.279 26.7573 42.7616 28.4469 42.8396 30.1788C42.9177 31.9108 42.589 33.637 41.8799 35.219C41.1707 36.8011 40.1009 38.195 38.7561 39.2892C37.4113 40.3834 35.8289 41.1475 34.1357 41.52C32.4425 41.8926 30.6856 41.8635 29.0057 41.4348C27.3258 41.0062 25.7696 40.1901 24.4619 39.0518Z" fill="#044C68" stroke="#044C68" stroke-width="2.84091"/>
<path d="M20.8467 31.3304L19.43 31.4343C19.5731 33.3846 20.171 35.2743 21.1758 36.952C22.1806 38.6296 23.5644 40.0486 25.2163 41.0953C26.8682 42.1419 28.7423 42.7871 30.6884 42.9791C32.6345 43.1711 34.5985 42.9046 36.4231 42.2009C38.2477 41.4973 39.8821 40.3761 41.1954 38.9271C42.5086 37.4782 43.4643 35.7417 43.9857 33.857C44.5072 31.9722 44.5799 29.9915 44.1981 28.0736C43.8163 26.1557 42.9906 24.3538 41.7871 22.8125L41.7792 22.8023L41.7711 22.7923C41.7116 22.719 41.6674 22.6346 41.641 22.544C41.6146 22.4534 41.6065 22.3584 41.6172 22.2646C41.6279 22.1709 41.6572 22.0802 41.7033 21.9978C41.7495 21.9155 41.8116 21.8432 41.886 21.7852C41.9541 21.7321 42.0312 21.6919 42.1135 21.6665C42.1207 21.6656 42.1313 21.6643 42.1456 21.663C42.1944 21.6583 42.2564 21.6549 42.3245 21.6531C42.3562 21.6523 42.3868 21.6518 42.4151 21.6516C42.4423 21.6592 42.4717 21.6676 42.5021 21.6767C42.5673 21.6963 42.6263 21.7157 42.6722 21.733C42.6856 21.738 42.6955 21.742 42.7022 21.7447C42.7751 21.7908 42.839 21.8497 42.8908 21.9188L42.8988 21.9294L42.9069 21.9398C44.2461 23.6561 45.1647 25.6621 45.5893 27.7971C46.0138 29.9322 45.9325 32.137 45.3519 34.235C44.7712 36.3331 43.7073 38.2659 42.2454 39.8789C40.7835 41.4919 38.9642 42.7401 36.9332 43.5236C34.9022 44.3071 32.716 44.6042 30.5496 44.3909C28.3832 44.1777 26.2968 43.4601 24.4575 42.2957C22.6183 41.1312 21.0773 39.5523 19.9579 37.6852C18.8385 35.8182 18.1719 33.715 18.0114 31.544L18.0113 31.5427C17.9984 31.37 18.0489 31.199 18.1525 31.0615C18.1632 31.0544 18.1786 31.0448 18.1995 31.0327C18.279 30.9867 18.3864 30.9356 18.5098 30.8851C18.5655 30.8623 18.6199 30.8414 18.6708 30.8228C18.7239 30.8336 18.7809 30.8462 18.8393 30.8604C18.9689 30.892 19.0827 30.9265 19.1681 30.9602C19.1905 30.969 19.2072 30.9763 19.2189 30.9817C19.3418 31.1022 19.4172 31.2637 19.4302 31.4364L20.8467 31.3304ZM20.8467 31.3304C20.8044 30.7665 20.54 30.2426 20.1114 29.8738C19.6829 29.5049 18.5616 29.3636 18.5616 29.3636L44.0268 21.066C43.8569 20.8396 43.6435 20.6493 43.3991 20.5063C43.1547 20.3633 42.6037 20.2331 42.6037 20.2331C42.6037 20.2331 42.0377 20.2147 41.7645 20.2889C41.4913 20.3631 41.2355 20.491 41.0123 20.6652C40.7891 20.8393 40.6028 21.0562 40.4643 21.3032C40.3259 21.5502 40.238 21.8222 40.2059 22.1035C40.1738 22.3849 40.1981 22.6697 40.2773 22.9415C40.3566 23.2134 40.4892 23.4667 40.6675 23.6866C41.7344 25.0531 42.4665 26.6506 42.805 28.3509C43.1435 30.0513 43.079 31.8073 42.6167 33.4782C42.1544 35.1492 41.3072 36.6886 40.1429 37.9732C38.9786 39.2578 37.5296 40.2518 35.912 40.8756C34.2944 41.4994 32.5532 41.7357 30.8278 41.5655C29.1025 41.3952 27.441 40.8233 25.9765 39.8954C24.512 38.9675 23.2852 37.7095 22.3944 36.2221C21.5035 34.7348 20.9735 33.0594 20.8467 31.3304Z" fill="#044C68" stroke="#044C68" stroke-width="2.84091"/>
<path d="M36.5999 43.8668L36.5873 43.871L36.5749 43.8755C34.5262 44.6115 32.3336 44.8575 30.1728 44.5939C28.0119 44.3303 25.9428 43.5643 24.1312 42.3574C22.3195 41.1504 20.8157 39.536 19.7401 37.6434C18.6645 35.7508 18.047 33.6326 17.9372 31.4585C17.8273 29.2844 18.228 27.1148 19.1073 25.1234C19.9866 23.132 21.32 21.3742 23.0007 19.9907C24.6814 18.6072 26.6628 17.6365 28.786 17.1564C30.9093 16.6762 33.1155 16.6999 35.228 17.2256L35.2293 17.226C35.3974 17.2676 35.544 17.369 35.6422 17.5104C35.6456 17.5228 35.65 17.5405 35.6549 17.5641C35.6738 17.6539 35.6888 17.7719 35.6982 17.905C35.7025 17.9649 35.7053 18.0232 35.7071 18.0773C35.6802 18.1244 35.6505 18.1746 35.6188 18.2256C35.5483 18.3389 35.4799 18.4362 35.4213 18.5069C35.4059 18.5254 35.3937 18.539 35.385 18.5484C35.2322 18.6274 35.0555 18.6486 34.8875 18.6071C32.9906 18.1342 31.0092 18.112 29.1022 18.5424C27.1946 18.9728 25.4143 19.8441 23.9041 21.0864C22.3938 22.3287 21.1955 23.9075 20.4052 25.6962C19.6149 27.485 19.2545 29.434 19.353 31.3871C19.4515 33.3401 20.006 35.243 20.9723 36.9432C21.9385 38.6434 23.2895 40.0936 24.9171 41.1777C26.5446 42.2618 28.4035 42.9496 30.3447 43.186C32.2859 43.4224 34.2555 43.2008 36.0957 42.5391L36.1078 42.5347L36.1198 42.5301C36.2081 42.4966 36.3021 42.481 36.3964 42.4842C36.4907 42.4874 36.5835 42.5094 36.6692 42.5488C36.7549 42.5883 36.8319 42.6444 36.8957 42.714C36.9595 42.7835 37.0088 42.8651 37.0407 42.9539C37.0699 43.0352 37.084 43.121 37.0824 43.2072C37.081 43.2143 37.0789 43.2247 37.0757 43.2387C37.0649 43.2866 37.0487 43.3465 37.0291 43.4117C37.02 43.4421 37.0109 43.4714 37.0023 43.4982C36.9866 43.5217 36.9694 43.547 36.9512 43.5731C36.9123 43.6289 36.8754 43.6789 36.8447 43.7171C36.8357 43.7283 36.8289 43.7364 36.8241 43.7419C36.7576 43.7968 36.6817 43.8391 36.5999 43.8668Z" fill="#044C68" stroke="#044C68" stroke-width="2.84091"/>
<path d="M60.3714 21.5413L52.6439 24.2124C52.4659 24.274 52.2707 24.2623 52.1013 24.1799C51.9319 24.0975 51.8022 23.9512 51.7406 23.7732C51.6791 23.5952 51.6908 23.4 51.7732 23.2306C51.8555 23.0612 52.0018 22.9315 52.1798 22.8699L59.9073 20.1988C60.0854 20.1372 60.2805 20.1489 60.4499 20.2313C60.6193 20.3137 60.7491 20.46 60.8106 20.638C60.8722 20.816 60.8605 21.0112 60.7781 21.1806C60.6957 21.35 60.5494 21.4797 60.3714 21.5413Z" fill="#044C68" stroke="#044C68" stroke-width="2.84091"/>
<path d="M60.7126 44.7594L59.4352 44.1383C59.3939 44.2231 59.3362 44.2989 59.2654 44.3611C59.1946 44.4234 59.1121 44.4709 59.0227 44.5009C58.9333 44.531 58.8388 44.5429 58.7447 44.536C58.6507 44.5292 58.5589 44.5036 58.4748 44.4609L58.4638 44.4553L58.4527 44.4499L51.1003 40.8748C51.1002 40.8748 51.1001 40.8747 51.1 40.8747C50.9307 40.7922 50.8011 40.6459 50.7396 40.4679C50.6781 40.2898 50.6899 40.0946 50.7723 39.9252C50.8547 39.7558 51.0011 39.626 51.1792 39.5645C51.3573 39.503 51.5525 39.5148 51.7219 39.5972L51.722 39.5973L59.0735 43.173L59.0846 43.1784L59.0959 43.1837C59.1814 43.2234 59.2582 43.2798 59.3217 43.3496C59.3851 43.4193 59.4341 43.501 59.4657 43.5898C59.4973 43.6787 59.5108 43.773 59.5056 43.8671C59.5004 43.9613 59.4764 44.0535 59.4352 44.1383L60.7126 44.7594Z" fill="#044C68" stroke="#044C68" stroke-width="2.84091"/>
<path d="M39.5694 51.0989L42.2406 58.8264C42.3021 59.0044 42.2904 59.1996 42.208 59.369C42.1256 59.5384 41.9794 59.6682 41.8013 59.7297C41.6233 59.7912 41.4281 59.7795 41.2587 59.6972C41.0893 59.6148 40.9596 59.4685 40.898 59.2905L38.2269 51.563C38.1654 51.385 38.1771 51.1898 38.2594 51.0204C38.3418 50.851 38.4881 50.7212 38.6661 50.6597C38.8442 50.5982 39.0393 50.6099 39.2087 50.6922C39.3781 50.7746 39.5079 50.9209 39.5694 51.0989Z" fill="#044C68" stroke="#044C68" stroke-width="2.84091"/>
<path d="M22.8566 50.6194L22.851 50.6304L22.8456 50.6415L19.2703 57.9942L19.2649 58.0053L19.2597 58.0165C19.2199 58.102 19.1635 58.1788 19.0938 58.2423C19.0241 58.3058 18.9424 58.3547 18.8535 58.3863C18.7647 58.4179 18.6704 58.4315 18.5763 58.4262C18.4821 58.421 18.3899 58.3971 18.3051 58.3558C18.2203 58.3146 18.1445 58.2569 18.0823 58.186C18.02 58.1152 17.9725 58.0327 17.9424 57.9433C17.9124 57.8539 17.9005 57.7594 17.9073 57.6654C17.9142 57.5713 17.9398 57.4795 17.9825 57.3955L17.988 57.3845L17.9934 57.3734L21.5687 50.0206L21.5741 50.0095L21.5793 49.9983C21.6191 49.9128 21.6755 49.8361 21.7452 49.7726C21.8149 49.7091 21.8966 49.6601 21.9855 49.6285C22.0744 49.597 22.1686 49.5834 22.2628 49.5886C22.3569 49.5939 22.4491 49.6178 22.5339 49.659C22.6187 49.7003 22.6945 49.758 22.7568 49.8288C22.819 49.8997 22.8666 49.9822 22.8966 50.0716C22.9266 50.161 22.9386 50.2554 22.9317 50.3495C22.9248 50.4435 22.8993 50.5353 22.8566 50.6194Z" fill="#044C68" stroke="#044C68" stroke-width="2.84091"/>
<path d="M11.4714 40.4228L11.46 40.4275L11.4487 40.4325L3.95946 43.7122L3.94815 43.7172L3.93694 43.7223C3.85122 43.7617 3.75853 43.7835 3.66428 43.7867C3.57 43.7898 3.47607 43.7741 3.38796 43.7405C3.29982 43.707 3.21925 43.6562 3.15097 43.5911C3.08269 43.5261 3.02803 43.4481 2.99019 43.3617C2.95236 43.2753 2.93211 43.1823 2.93063 43.088C2.92914 42.9937 2.94645 42.9001 2.98155 42.8125C3.01665 42.725 3.06882 42.6453 3.13503 42.5782C3.20127 42.511 3.2802 42.4577 3.36721 42.4214L3.3786 42.4166L3.38991 42.4117L10.8792 39.1319L10.8905 39.127L10.9017 39.1218C10.9874 39.0825 11.0801 39.0606 11.1743 39.0575C11.2686 39.0544 11.3625 39.0701 11.4507 39.1036C11.5388 39.1372 11.6194 39.188 11.6876 39.253C11.7559 39.3181 11.8106 39.3961 11.8484 39.4824C11.8862 39.5688 11.9065 39.6619 11.908 39.7562C11.9095 39.8505 11.8922 39.9441 11.8571 40.0317C11.822 40.1192 11.7698 40.1989 11.7036 40.266C11.6374 40.3332 11.5584 40.3864 11.4714 40.4228Z" fill="#044C68" stroke="#044C68" stroke-width="2.84091"/>
<path d="M45.5449 3.47396C45.6063 3.64661 45.5985 3.83618 45.5234 4.00308L41.9564 11.3412C41.9564 11.3413 41.9563 11.3413 41.9563 11.3414C41.8738 11.5109 41.7274 11.6407 41.5493 11.7023C41.3711 11.7639 41.1757 11.7522 41.0062 11.6697C40.8366 11.5873 40.7067 11.4408 40.6451 11.2626C40.5836 11.0845 40.5953 10.8892 40.6776 10.7196C40.6776 10.7196 40.6777 10.7196 40.6777 10.7196C40.6777 10.7196 40.6777 10.7195 40.6777 10.7195L44.2466 3.38221C44.3315 3.22011 44.4758 3.09693 44.6495 3.03857C44.826 2.97926 45.0188 2.99166 45.1863 3.07309C45.3537 3.15453 45.4825 3.29848 45.5449 3.47396Z" fill="#044C68" stroke="#044C68" stroke-width="2.84091"/>
<path d="M22.7627 2.2241C22.9271 2.30507 23.0537 2.44638 23.1163 2.61834L25.6761 10.3656C25.6761 10.3657 25.6761 10.3657 25.6762 10.3658C25.7352 10.5448 25.7208 10.7399 25.636 10.9082C25.5512 11.0766 25.403 11.2045 25.224 11.2636C25.045 11.3227 24.8498 11.3083 24.6814 11.2235C24.513 11.1388 24.3852 10.9906 24.3261 10.8117C24.3261 10.8117 24.326 10.8116 24.326 10.8116C24.326 10.8116 24.326 10.8115 24.326 10.8115L21.7681 3.06362C21.716 2.88821 21.7335 2.6993 21.8173 2.53635C21.9025 2.37074 22.0493 2.24523 22.2262 2.18682C22.403 2.12842 22.5957 2.14181 22.7627 2.2241Z" fill="#044C68" stroke="#044C68" stroke-width="2.84091"/>
<path d="M4.40507 18.2881C4.58246 18.2422 4.77061 18.2667 4.93023 18.3562L11.9246 22.5575C11.9247 22.5575 11.9247 22.5576 11.9248 22.5576C12.0863 22.6547 12.2027 22.812 12.2483 22.9949C12.2939 23.1778 12.265 23.3714 12.1679 23.533C12.0708 23.6946 11.9135 23.811 11.7305 23.8567C11.5476 23.9023 11.3541 23.8734 11.1925 23.7763C11.1925 23.7763 11.1925 23.7763 11.1925 23.7763C11.1924 23.7763 11.1924 23.7763 11.1924 23.7762L4.199 19.5732C4.04503 19.4743 3.93508 19.3197 3.89229 19.1415C3.8488 18.9605 3.87818 18.7695 3.97409 18.6099C4.07 18.4503 4.22477 18.3347 4.40507 18.2881Z" fill="#044C68" stroke="#044C68" stroke-width="2.84091"/>
</svg>
